<?xml version="1.0" standalone="no"?>
<!DOCTYPE svg PUBLIC "-//W3C//DTD SVG 20010904//EN"
 "http://www.w3.org/TR/2001/REC-SVG-20010904/DTD/svg10.dtd">
<svg version="1.0" xmlns="http://www.w3.org/2000/svg"
 width="928.000000pt" height="1280.000000pt" viewBox="0 0 928.000000 1280.000000"
 preserveAspectRatio="xMidYMid meet">
<g transform="translate(0.000000,1280.000000) scale(0.100000,-0.100000)"
fill="#000000" stroke="none">
<path d="M5585 12789 c-33 -5 -66 -11 -74 -14 -8 -3 -836 -80 -1840 -170
-1109 -100 -1850 -171 -1886 -181 -299 -79 -586 -363 -733 -724 -36 -88 -82
-247 -96 -330 -3 -19 -114 -1128 -246 -2465 -132 -1337 -344 -3481 -471 -4765
-127 -1284 -234 -2390 -236 -2457 -13 -312 87 -592 270 -760 60 -55 1294 -829
1392 -873 74 -34 147 -50 227 -50 108 0 4279 380 4393 400 962 171 1886 948
2455 2065 366 720 557 1542 537 2310 -7 249 -17 356 -52 571 -103 620 -361
1185 -707 1550 -37 39 -68 74 -68 78 0 4 26 53 59 109 341 592 547 1260 602
1951 16 206 6 617 -19 806 -76 555 -254 1018 -538 1400 -96 129 -299 334 -416
421 -82 60 -1264 804 -1427 898 -277 158 -605 243 -934 240 -73 -1 -159 -5
-192 -10z m599 -3011 c15 -59 0 -268 -30 -418 -38 -186 -132 -405 -248 -575
-74 -110 -235 -273 -334 -338 -90 -60 -197 -110 -282 -132 -56 -15 -1658 -168
-1668 -159 -5 4 134 1413 140 1419 2 2 544 54 1204 114 659 60 1202 109 1205
110 4 1 9 -9 13 -21z m138 -4490 c8 -47 13 -151 13 -293 0 -190 -3 -236 -23
-335 -96 -474 -357 -899 -703 -1142 -166 -116 -323 -178 -504 -198 -145 -16
-1978 -180 -1980 -178 -3 4 188 1942 191 1946 3 4 2903 269 2961 271 31 1 31
1 45 -71z"/>
</g>
</svg>
